<svg xmlns="http://www.w3.org/2000/svg" width="48" height="48" viewBox="150 150 700 700">
	<rect x="150" y="150" width="700" height="700" fill="none" rx="10" ry="10"/>
	<path d="M 498 173.549 C 492.775 176.680, 486.925 180.141, 485 181.239 C 483.075 182.338, 472.500 188.511, 461.500 194.958 C 450.500 201.405, 432.950 211.639, 422.500 217.701 C 412.050 223.763, 386.625 238.511, 366 250.476 C 312.695 281.398, 306.214 285.152, 280.500 300.006 C 267.850 307.313, 252.325 316.301, 246 319.980 C 239.675 323.658, 230.324 329.056, 225.219 331.976 C 220.115 334.895, 214.828 338.604, 213.469 340.219 L 211 343.153 211 507.591 L 211 672.029 214.250 675.468 C 216.038 677.360, 227.400 684.606, 239.500 691.571 C 251.600 698.536, 269.375 708.829, 279 714.445 C 288.625 720.060, 306.625 730.531, 319 737.715 C 389.228 778.479, 417.616 794.990, 427 800.531 C 432.775 803.941, 450.550 814.275, 466.500 823.497 C 482.450 832.719, 497.750 841.631, 500.500 843.302 C 506.641 847.033, 513.854 847.924, 519.346 845.629 C 521.429 844.758, 528.391 840.939, 534.817 837.142 C 541.243 833.345, 584.300 808.196, 630.500 781.256 C 733.020 721.475, 767.122 701.512, 799.920 682.081 C 805.100 679.011, 810.275 675.230, 811.420 673.677 L 813.500 670.854 813.759 508.416 C 813.982 368.554, 813.817 345.497, 812.571 342.517 C 810.794 338.264, 809.036 337.119, 767.643 313.263 C 750.084 303.144, 729.818 291.446, 722.608 287.268 C 715.399 283.091, 702.750 275.783, 694.500 271.029 C 658.304 250.169, 630.051 233.802, 611 222.658 C 519.298 169.014, 518.799 168.738, 513 168.286 C 507.767 167.878, 507.039 168.133, 498 173.549 M 507.951 221.071 C 501.519 224.943, 319.720 330.745, 299.250 342.529 C 289.762 347.991, 282.019 352.693, 282.042 352.980 C 282.065 353.266, 288.027 356.836, 295.292 360.914 C 302.556 364.991, 314.125 371.582, 321 375.559 C 327.875 379.536, 343.175 388.387, 355 395.227 C 366.825 402.067, 378.772 408.927, 381.550 410.472 L 386.599 413.281 443.050 380.534 C 474.097 362.524, 501.380 346.711, 503.678 345.394 C 512.540 340.316, 512.688 340.375, 560.828 368.383 C 577.147 377.878, 601.184 391.795, 614.242 399.310 L 637.984 412.974 664.742 397.333 C 679.459 388.730, 702.887 375.052, 716.804 366.936 L 742.107 352.180 732.804 346.746 C 727.687 343.757, 714.725 336.216, 704 329.987 C 693.275 323.759, 679.775 315.857, 674 312.429 C 668.225 309.001, 655.400 301.490, 645.500 295.739 C 635.600 289.988, 621.875 281.999, 615 277.985 C 608.125 273.971, 601.150 269.914, 599.500 268.970 C 595.129 266.469, 562.039 247.265, 535.451 231.799 L 512.401 218.392 507.951 221.071 M 758 396.696 C 752.775 399.737, 744.450 404.583, 739.500 407.466 C 719.371 419.190, 675.003 444.919, 667.762 449.067 L 660.025 453.500 660.009 518.500 C 659.993 580.187, 659.897 583.653, 658.127 586.500 C 656.780 588.665, 649.060 593.654, 630.381 604.429 C 606.226 618.361, 595.083 624.895, 559.500 645.987 C 551.800 650.551, 544.099 655.079, 542.387 656.049 C 540.675 657.018, 538.312 658.412, 537.137 659.147 L 535 660.481 535 721.741 C 535 755.433, 535.217 783, 535.482 783 C 535.748 783, 542.385 779.244, 550.232 774.654 C 558.080 770.064, 571.025 762.582, 579 758.026 C 595.062 748.851, 595.334 748.695, 609.500 740.489 C 622.955 732.695, 653.953 714.814, 667.500 707.033 C 673.550 703.558, 684.350 697.240, 691.500 692.992 C 698.650 688.745, 711.475 681.228, 720 676.287 C 728.525 671.346, 741.800 663.559, 749.500 658.982 C 757.200 654.405, 764.509 650.174, 765.742 649.580 L 767.984 648.500 767.992 519.750 C 767.996 448.938, 767.888 391.038, 767.750 391.084 C 767.612 391.130, 763.225 393.656, 758 396.696 M 256.028 520.284 L 256.055 648.500 275.778 659.947 C 344.742 699.973, 406.002 735.479, 416 741.218 C 417.925 742.323, 433.450 751.329, 450.500 761.232 C 487.365 782.644, 487.988 783, 488.565 783 C 488.813 783, 488.899 755.275, 488.758 721.388 L 488.500 659.776 474.500 651.801 C 453.225 639.682, 452.886 639.485, 412.500 615.820 C 399.850 608.407, 385.225 599.947, 380 597.018 C 370.209 591.531, 366.502 588.771, 364.881 585.764 C 364.326 584.735, 363.961 557.462, 363.986 518.752 L 364.026 453.476 357.763 450.053 C 354.318 448.170, 347.225 444.169, 342 441.161 C 336.775 438.154, 331.150 434.932, 329.500 434.002 C 326.485 432.303, 265.326 397.418, 259.250 393.932 L 256 392.067 256.028 520.284 M 503.500 397.731 C 496.648 401.701, 460.490 423.013, 420.250 446.801 L 409 453.451 409 506.675 L 409 559.900 433.250 574.329 C 446.587 582.266, 466.500 593.834, 477.500 600.036 C 488.500 606.238, 500.736 613.241, 504.691 615.599 L 511.882 619.885 535.191 606.321 C 548.011 598.860, 564.350 589.300, 571.500 585.076 C 578.650 580.853, 591.123 573.595, 599.219 568.949 L 613.938 560.500 614.219 506.704 L 614.500 452.908 608.500 449.594 C 605.200 447.771, 600.925 445.379, 599 444.279 C 592.894 440.788, 526.790 401.490, 519.732 397.156 C 516.010 394.870, 512.635 393.022, 512.232 393.048 C 511.830 393.075, 507.900 395.182, 503.500 397.731" stroke="none" fill="#000000" fill-rule="evenodd"/>
</svg>